<?xml version="1.0" standalone="no"?>
<!DOCTYPE svg PUBLIC "-//W3C//DTD SVG 20010904//EN"
 "http://www.w3.org/TR/2001/REC-SVG-20010904/DTD/svg10.dtd">
<svg version="1.0" xmlns="http://www.w3.org/2000/svg"
 width="64.000000pt" height="64.000000pt" viewBox="0 0 64.000000 64.000000"
 preserveAspectRatio="xMidYMid meet">

<g transform="translate(0.000000,64.000000) scale(0.100000,-0.100000)"
fill="#A78BFA" stroke="none">
<path d="M102 548 c-17 -17 -17 -329 0 -346 7 -7 42 -12 85 -12 42 0 73 -4 73
-10 0 -5 -20 -10 -45 -10 -38 0 -50 -5 -74 -32 -16 -18 -27 -36 -25 -40 7 -10
401 -10 408 0 2 4 -9 22 -25 40 -24 27 -36 32 -74 32 -25 0 -45 5 -45 10 0 6
31 10 73 10 43 0 78 5 85 12 17 17 17 329 0 346 -17 17 -419 17 -436 0z m428
-173 l0 -165 -210 0 -210 0 0 165 0 165 210 0 210 0 0 -165z m-170 -205 c0
-17 -7 -20 -40 -20 -33 0 -40 3 -40 20 0 17 7 20 40 20 33 0 40 -3 40 -20z
m-100 -30 c0 -6 27 -10 60 -10 33 0 60 4 60 10 0 6 20 10 43 10 31 0 49 -6 62
-20 18 -20 17 -20 -165 -20 -182 0 -183 0 -165 20 13 14 31 20 62 20 23 0 43
-4 43 -10z"/>
<path d="M130 375 l0 -145 190 0 190 0 0 145 0 145 -190 0 -190 0 0 -145z
m360 0 l0 -125 -170 0 -170 0 0 125 0 125 170 0 170 0 0 -125z"/>
</g>
</svg>
